<?xml version="1.0" encoding="UTF-8" standalone="no"?>
<svg
   xmlns:dc="http://purl.org/dc/elements/1.1/"
   xmlns:cc="http://creativecommons.org/ns#"
   xmlns:rdf="http://www.w3.org/1999/02/22-rdf-syntax-ns#"
   xmlns:svg="http://www.w3.org/2000/svg"
   xmlns="http://www.w3.org/2000/svg"
   xmlns:xlink="http://www.w3.org/1999/xlink"
   xmlns:sodipodi="http://sodipodi.sourceforge.net/DTD/sodipodi-0.dtd"
   xmlns:inkscape="http://www.inkscape.org/namespaces/inkscape"
   version="1.0"
   width="48"
   height="48"
   id="svg2"
   sodipodi:docname="hidrante_18x30pt.svg"
   inkscape:export-filename="C:\Users\usuario\Desktop\70pt.png"
   inkscape:export-xdpi="96"
   inkscape:export-ydpi="96"
   inkscape:version="1.0.2-2 (e86c870879, 2021-01-15)">
  <metadata
     id="metadata314">
    <rdf:RDF>
      <cc:Work
         rdf:about="">
        <dc:format>image/svg+xml</dc:format>
        <dc:type
           rdf:resource="http://purl.org/dc/dcmitype/StillImage" />
        <dc:title></dc:title>
      </cc:Work>
    </rdf:RDF>
  </metadata>
  <sodipodi:namedview
     pagecolor="#ffffff"
     bordercolor="#666666"
     borderopacity="1"
     objecttolerance="10"
     gridtolerance="10"
     guidetolerance="10"
     inkscape:pageopacity="0"
     inkscape:pageshadow="2"
     inkscape:window-width="1920"
     inkscape:window-height="1027"
     id="namedview312"
     showgrid="false"
     inkscape:zoom="6.1650873"
     inkscape:cx="22.538198"
     inkscape:cy="32.827226"
     inkscape:window-x="-8"
     inkscape:window-y="-8"
     inkscape:window-maximized="1"
     inkscape:current-layer="svg2" />
  <defs
     id="defs4">
    <linearGradient
       id="lg1">
      <stop
         id="stop5"
         style="stop-color:#ffffff;stop-opacity:1"
         offset="0" />
      <stop
         id="stop7"
         style="stop-color:#ffffff;stop-opacity:0"
         offset="1" />
    </linearGradient>
    <linearGradient
       id="lg2">
      <stop
         style="stop-color:#eeeeec;stop-opacity:1"
         offset="0"
         id="stop166" />
      <stop
         style="stop-color:#eeeeec;stop-opacity:0"
         offset="1"
         id="stop168" />
    </linearGradient>
    <linearGradient
       id="lg3">
      <stop
         style="stop-color:#000000;stop-opacity:1"
         offset="0"
         id="stop171" />
      <stop
         style="stop-color:#000000;stop-opacity:0"
         offset="1"
         id="stop173" />
    </linearGradient>
    <linearGradient
       id="lg4">
      <stop
         style="stop-color:#cc0000;stop-opacity:1"
         offset="0"
         id="stop176" />
      <stop
         style="stop-color:#ff9494;stop-opacity:1"
         offset="1"
         id="stop178" />
    </linearGradient>
    <linearGradient
       id="lg5">
      <stop
         style="stop-color:#a40000;stop-opacity:1"
         offset="0"
         id="stop181" />
      <stop
         style="stop-color:#ff6767;stop-opacity:1"
         offset="0.62"
         id="stop183" />
      <stop
         style="stop-color:#cc0000;stop-opacity:1"
         offset="1"
         id="stop185" />
    </linearGradient>
    <linearGradient
       id="lg6">
      <stop
         style="stop-color:#ff7171;stop-opacity:1"
         offset="0"
         id="stop188" />
      <stop
         style="stop-color:#cc0000;stop-opacity:1"
         offset="1"
         id="stop190" />
    </linearGradient>
    <linearGradient
       id="lg7">
      <stop
         style="stop-color:#ffffff;stop-opacity:1"
         offset="0"
         id="stop193" />
      <stop
         style="stop-color:#ffffff;stop-opacity:0"
         offset="1"
         id="stop195" />
    </linearGradient>
    <linearGradient
       id="lg8">
      <stop
         style="stop-color:#f24e4e;stop-opacity:1"
         offset="0"
         id="stop198" />
      <stop
         style="stop-color:#c10000;stop-opacity:1"
         offset="1"
         id="stop200" />
    </linearGradient>
    <linearGradient
       x1="0.016"
       y1="24.5"
       x2="15.5"
       y2="27.78"
       id="lg9"
       xlink:href="#lg7"
       gradientUnits="userSpaceOnUse"
       gradientTransform="matrix(0.44444444,0,0,0.74044443,26.388888,5.1492097)" />
    <linearGradient
       x1="30"
       y1="7.9"
       x2="30"
       y2="10.433"
       id="lg10"
       xlink:href="#lg8"
       gradientUnits="userSpaceOnUse"
       gradientTransform="matrix(1.1848889,0,0,1.856,-3.1666672,10.704767)" />
    <linearGradient
       x1="6.5"
       y1="30.3"
       x2="15.5"
       y2="31"
       id="lg11"
       xlink:href="#lg7"
       gradientUnits="userSpaceOnUse"
       gradientTransform="matrix(0.44444444,0,0,0.74044443,8.6093334,5.1492097)" />
    <linearGradient
       x1="30"
       y1="7.9"
       x2="30"
       y2="10.433"
       id="lg12"
       xlink:href="#lg8"
       gradientUnits="userSpaceOnUse"
       gradientTransform="matrix(1.1848889,0,0,1.856,-20.944445,10.704767)" />
    <linearGradient
       x1="-6.6"
       y1="-26.95"
       x2="4.3"
       y2="-16"
       id="lg13"
       xlink:href="#lg7"
       gradientUnits="userSpaceOnUse"
       gradientTransform="matrix(1.111111,0,0,1.111111,22.388889,50.260321)" />
    <linearGradient
       x1="-1.277"
       y1="-24.137"
       x2="1"
       y2="-15.62"
       id="lg14"
       xlink:href="#lg6"
       gradientUnits="userSpaceOnUse"
       gradientTransform="matrix(1.0666666,0,0,1.0666666,22.433331,49.371432)" />
    <linearGradient
       x1="22"
       y1="25"
       x2="17"
       y2="25"
       id="lg15"
       xlink:href="#lg7"
       gradientUnits="userSpaceOnUse"
       gradientTransform="matrix(1.135111,0,0,0.8888888,5.4733313,0.66032171)" />
    <linearGradient
       x1="22"
       y1="29"
       x2="18"
       y2="29"
       id="lg16"
       xlink:href="#lg2"
       gradientUnits="userSpaceOnUse"
       gradientTransform="matrix(1.3333333,0,0,1.0133333,1.7222217,-0.58412211)" />
    <linearGradient
       x1="22"
       y1="25"
       x2="17"
       y2="25"
       id="lg17"
       xlink:href="#lg7"
       gradientUnits="userSpaceOnUse"
       gradientTransform="matrix(1.135111,0,0,1.0088888,1.9266659,0.15365428)" />
    <linearGradient
       x1="22"
       y1="29"
       x2="18"
       y2="29"
       id="lg18"
       xlink:href="#lg2"
       gradientUnits="userSpaceOnUse"
       gradientTransform="matrix(1.3333333,0,0,1.0133333,-1.8333336,-1.1174556)" />
    <linearGradient
       x1="22"
       y1="25"
       x2="17"
       y2="25"
       id="lg19"
       xlink:href="#lg7"
       gradientUnits="userSpaceOnUse"
       gradientTransform="matrix(1.135111,0,0,0.8888888,-1.6288902,0.66032171)" />
    <linearGradient
       x1="22"
       y1="29"
       x2="18"
       y2="29"
       id="lg20"
       xlink:href="#lg2"
       gradientUnits="userSpaceOnUse"
       gradientTransform="matrix(1.3333333,0,0,1.0133333,-5.3888892,-0.66412288)" />
    <linearGradient
       x1="18.25"
       y1="16.375"
       x2="46.33"
       y2="16.375"
       id="lg21"
       xlink:href="#lg7"
       gradientUnits="userSpaceOnUse"
       gradientTransform="matrix(0.1688889,0,0,0.10844443,19.322222,6.6158768)" />
    <linearGradient
       x1="43.3"
       y1="11.686"
       x2="5.25"
       y2="11.686"
       id="lg22"
       xlink:href="#lg5"
       gradientUnits="userSpaceOnUse"
       gradientTransform="matrix(0.17244443,0,0,0.18933334,19.322222,5.3714321)" />
    <linearGradient
       x1="19.5"
       y1="22.64"
       x2="36.06"
       y2="22.64"
       id="lg3927"
       xlink:href="#lg6"
       gradientUnits="userSpaceOnUse"
       gradientTransform="matrix(0.47466664,0,0,0.31555556,12.833332,5.3714321)" />
    <linearGradient
       x1="16"
       y1="9.5"
       x2="32"
       y2="9.5"
       id="lg3929"
       xlink:href="#lg7"
       gradientUnits="userSpaceOnUse"
       gradientTransform="matrix(0.82488886,0,0,0.8053333,3.7133318,3.9492102)" />
    <linearGradient
       x1="19.5"
       y1="22.64"
       x2="36.06"
       y2="22.64"
       id="lg3932"
       xlink:href="#lg6"
       gradientUnits="userSpaceOnUse"
       gradientTransform="matrix(0.47999998,0,0,0.3191111,12.744443,5.3714321)" />
    <radialGradient
       cx="18"
       cy="27.858"
       r="15.45"
       fx="17.592"
       fy="24.538"
       id="radialGradient3935"
       xlink:href="#lg7"
       gradientUnits="userSpaceOnUse"
       gradientTransform="matrix(0.99822225,-0.13244443,-0.00622223,0.21333335,3.3275546,15.104766)" />
    <linearGradient
       x1="18.25"
       y1="16.375"
       x2="46.33"
       y2="16.375"
       id="lg3938"
       xlink:href="#lg7"
       gradientUnits="userSpaceOnUse"
       gradientTransform="matrix(0.55111109,0,0,0.74933332,10.255556,5.5314318)" />
    <linearGradient
       x1="29.731"
       y1="17"
       x2="21"
       y2="1.828"
       id="lg3941"
       xlink:href="#lg4"
       gradientUnits="userSpaceOnUse"
       gradientTransform="matrix(0.54488888,0,0,0.66666665,10.433334,6.3758771)" />
    <linearGradient
       x1="43.3"
       y1="11.686"
       x2="5.25"
       y2="11.686"
       id="lg3944"
       xlink:href="#lg5"
       gradientUnits="userSpaceOnUse"
       gradientTransform="matrix(0.57777778,0,0,0.77066662,9.7222221,5.2469886)" />
    <radialGradient
       cx="24"
       cy="18.4675"
       r="14"
       fx="24"
       fy="18.4675"
       id="radialGradient3947"
       xlink:href="#lg3"
       gradientUnits="userSpaceOnUse"
       gradientTransform="matrix(0.62222221,0,0,0.19022221,9.0235553,16.926988)" />
    <linearGradient
       x1="5.66"
       y1="19.392"
       x2="40.25"
       y2="38.896"
       id="lg3950"
       xlink:href="#lg7"
       gradientUnits="userSpaceOnUse"
       gradientTransform="matrix(0.44444444,0,0,0.66666665,12.449333,7.1492116)" />
    <linearGradient
       x1="45.63"
       y1="17.86"
       x2="6.123"
       y2="17.86"
       id="lg3953"
       xlink:href="#lg5"
       gradientUnits="userSpaceOnUse"
       gradientTransform="matrix(0.44444444,0,0,0.66666665,11.722222,7.1492116)" />
    <radialGradient
       cx="18"
       cy="27.858"
       r="15.45"
       fx="17.592"
       fy="24.538"
       id="radialGradient3956"
       xlink:href="#lg7"
       gradientUnits="userSpaceOnUse"
       gradientTransform="matrix(0.99822225,-0.13244443,-0.00622223,0.21333335,3.3275546,35.549209)" />
    <linearGradient
       x1="18.25"
       y1="16.375"
       x2="46.3278"
       y2="16.375"
       id="lg3959"
       xlink:href="#lg7"
       gradientUnits="userSpaceOnUse"
       gradientTransform="matrix(0.55111109,0,0,0.74933332,10.273333,25.815876)" />
    <linearGradient
       x1="29.731"
       y1="17"
       x2="21"
       y2="1.828"
       id="lg3962"
       xlink:href="#lg4"
       gradientUnits="userSpaceOnUse"
       gradientTransform="matrix(0.54488888,0,0,0.66666665,10.433334,26.820322)" />
    <linearGradient
       x1="43.3"
       y1="11.686"
       x2="5.25"
       y2="11.686"
       id="lg3965"
       xlink:href="#lg5"
       gradientUnits="userSpaceOnUse"
       gradientTransform="matrix(0.57777778,0,0,0.77066662,9.7222221,25.815876)" />
    <radialGradient
       cx="24"
       cy="18.4675"
       r="14"
       fx="24"
       fy="18.4675"
       id="radialGradient3968"
       xlink:href="#lg3"
       gradientUnits="userSpaceOnUse"
       gradientTransform="matrix(0.62222221,0,0,0.19022221,9.0235553,37.371431)" />
    <radialGradient
       cx="23.97"
       cy="12.22"
       r="15"
       fx="23.97"
       fy="12.22"
       id="radialGradient3971"
       xlink:href="#lg3"
       gradientUnits="userSpaceOnUse"
       gradientTransform="matrix(0.66666665,0,0,0.30933331,7.7933328,35.815876)" />
    <linearGradient
       x1="22.14"
       y1="6.3"
       x2="27.6"
       y2="6.3"
       id="lg3261"
       xlink:href="#lg1"
       gradientUnits="userSpaceOnUse"
       gradientTransform="matrix(0.8888888,0,0,0.8888888,2.6111096,2.7047663)" />
  </defs>
  <path
     d="m 34.61111,39.593656 c 0,2.700442 -4.775999,4.88889 -10.666667,4.88889 -5.89102,0 -10.666664,-2.189335 -10.666664,-4.88889 0,-2.700445 4.775644,-4.88889 10.666664,-4.88889 5.890668,0 10.666667,2.188445 10.666667,4.88889 z"
     style="opacity:0.9;fill:url(#radialGradient3971);stroke-width:0.888891"
     id="path235"
     inkscape:export-xdpi="96"
     inkscape:export-ydpi="96" />
  <path
     d="m 23.010222,38.260322 c -3.430221,0.04889 -6.381333,0.595555 -7.954665,1.385778 v 2.562666 c 1.644444,0.824889 4.807999,1.384891 8.444443,1.384891 3.644442,0 6.799111,-0.560002 8.444443,-1.384356 V 39.6461 C 30.299111,38.823878 27.144442,38.260322 23.5,38.260322 c -0.166479,0 -0.325335,0 -0.489778,0 z"
     style="opacity:0.56;fill:url(#radialGradient3968);stroke-width:0.888891"
     id="path237"
     inkscape:export-xdpi="96"
     inkscape:export-ydpi="96" />
  <path
     d="m 22.594223,30.704769 c -4.48089,0.243553 -7.983112,2.222221 -7.983112,4.612443 v 2.32089 c 0,2.544888 4,4.622224 8.888889,4.622224 4.888889,0 8.888888,-2.077336 8.888888,-4.622224 v -2.32889 c 0,-2.543999 -3.999999,-4.604443 -8.888888,-4.604443 -0.315555,0 -0.607111,-0.0089 -0.905777,0 z"
     style="fill:url(#lg3965);stroke:#a40000;stroke-width:0.888891"
     id="path239"
     inkscape:export-xdpi="96"
     inkscape:export-ydpi="96" />
  <path
     d="m 31.944445,35.291434 c 0,2.208001 -3.782223,3.857778 -8.444445,3.857778 -4.657778,0 -8.618667,-1.79911 -8.444445,-4.000001 0.0889,-1.015998 1.063111,-2.049778 2.604444,-2.811556 1.505779,-0.743999 3.546667,-1.229331 5.840001,-1.188442 2.294223,0.04444 4.360001,0.455556 5.874667,1.234666 1.616888,0.831111 2.569778,1.945777 2.569778,2.907555 z"
     style="fill:url(#lg3962);stroke-width:0.888891"
     id="path241"
     inkscape:export-xdpi="96"
     inkscape:export-ydpi="96" />
  <path
     d="m 22.683112,31.593656 c -4.036446,0.204446 -7.307556,1.923556 -7.183113,3.902222 v 1.959112 c -0.139909,2.05778 3.576002,3.916443 7.990224,3.916443 4.413333,0 8.212443,-1.869331 8.009778,-3.917332 v -1.958223 c 0.127104,-2.064 -3.595558,-3.89511 -8.009778,-3.902222 -0.276446,0 -0.538668,0 -0.807111,0 z"
     style="opacity:0.56;fill:none;stroke:url(#lg3959);stroke-width:0.888891"
     id="path243"
     inkscape:export-xdpi="96"
     inkscape:export-ydpi="96" />
  <path
     d="m 31.446667,34.704767 c 0.561776,2.281778 -3.36889,4.048889 -7.934224,4.000001 -4.538666,-0.05102 -8.634666,-1.911111 -7.932443,-4.000001 0.697778,-2.079999 3.552889,-3.999998 7.932443,-3.999998 4.379557,0 7.934224,1.791998 7.934224,3.999998 z"
     style="fill:none;stroke:url(#radialGradient3956);stroke-width:0.888891"
     id="path245"
     inkscape:export-xdpi="96"
     inkscape:export-ydpi="96" />
  <path
     d="m 22.764,12.0381 c -3.317333,0.159998 -6.37511,1.51111 -6.37511,3.366222 0,1.522667 0,16.618669 0,18.160001 0,1.860444 3.155554,3.362667 7.095821,3.362667 3.937065,0 7.126399,-1.503112 7.126399,-3.362667 0,-1.494223 0,-16.666666 0,-18.160001 0,-1.855112 -3.189334,-3.366222 -7.126399,-3.366222 -0.184711,0 -0.370488,0 -0.551823,0 -0.05777,0 -0.11112,0 -0.16889,0 z"
     style="fill:url(#lg3953);stroke:#a40000;stroke-width:0.888891"
     id="path247"
     inkscape:export-xdpi="96"
     inkscape:export-ydpi="96" />
  <path
     d="m 23.012,12.92699 c -3.032,0.106666 -5.450665,1.285334 -5.719111,2.654222 -0.0152,0.04142 -0.0035,17.773333 -0.0152,17.816889 -0.159998,1.306666 2.890666,2.640001 6.208889,2.640001 3.394668,0 6.36889,-1.333335 6.235556,-2.640001 0,-0.02666 0,-17.715557 0,-17.744889 -0.130929,-1.507557 -2.878224,-2.726222 -6.235556,-2.726222 -0.160889,0 -0.316445,-0.0026 -0.474666,0 z"
     style="opacity:0.7;fill:none;stroke:url(#lg3950);stroke-width:0.888891"
     id="path249"
     inkscape:export-xdpi="96"
     inkscape:export-ydpi="96" />
  <path
     d="m 23.010222,17.815878 c -3.421332,0.04889 -6.381333,0.595556 -7.954667,1.385779 v 2.563199 C 16.7,22.589212 19.863556,23.149211 23.5,23.149211 c 3.644442,0 6.799111,-0.559999 8.444445,-1.384355 V 19.201657 C 30.299111,18.379433 27.144442,17.815878 23.5,17.815878 c -0.166479,0 -0.325335,0 -0.489778,0 z"
     style="opacity:0.5;fill:url(#radialGradient3947);stroke-width:0.888891"
     id="path251"
     inkscape:export-xdpi="96"
     inkscape:export-ydpi="96" />
  <path
     d="m 22.594223,10.267434 c -4.48089,0.236444 -7.983112,2.215111 -7.983112,4.605334 v 2.320888 c 0,2.544889 4,4.622223 8.888889,4.622223 4.888889,0 8.888888,-2.077334 8.888888,-4.622223 v -2.328888 c 0,-2.543999 -3.999999,-4.597334 -8.888888,-4.597334 -0.315555,-0.007 -0.604445,-0.007 -0.888888,0.0018 z"
     style="fill:url(#lg3944);stroke:#a40000;stroke-width:0.888891"
     id="path253"
     inkscape:export-xdpi="96"
     inkscape:export-ydpi="96" />
  <path
     d="m 31.944445,14.846989 c 0,2.208 -3.782223,3.85778 -8.444445,3.85778 -4.657778,0 -8.618667,-1.800001 -8.444445,-4.000001 0.0889,-1.015999 1.063111,-2.049778 2.604444,-2.811558 1.505779,-0.743999 3.546667,-1.229331 5.840001,-1.188443 2.294223,0.04444 4.360001,0.455555 5.874667,1.234667 1.616888,0.831111 2.569778,1.945778 2.569778,2.907555 z"
     style="fill:url(#lg3941);stroke-width:0.888891"
     id="path255"
     inkscape:export-xdpi="96"
     inkscape:export-ydpi="96" />
  <path
     d="m 22.683112,11.149211 c -4.036446,0.204446 -7.307556,1.92 -7.183113,3.902222 v 1.958222 c -0.139909,2.058668 3.555557,3.917335 7.990224,3.917335 4.413333,0 8.212443,-1.869333 8.009778,-3.916445 v -1.959112 c 0.127104,-2.063999 -3.595558,-3.895112 -8.009778,-3.902222 -0.276446,0 -0.541335,0 -0.807111,0 z"
     style="opacity:0.56;fill:none;stroke:url(#lg3938);stroke-width:0.888891"
     id="path257"
     inkscape:export-xdpi="96"
     inkscape:export-ydpi="96" />
  <path
     d="m 31.446667,14.260323 c 0.561776,2.281777 -3.36889,4.049778 -7.934224,4 -4.538666,-0.05102 -8.634666,-1.911111 -7.933332,-4 0.698667,-2.079113 3.553778,-4.000001 7.933332,-4.000001 4.379557,0 7.934224,1.792001 7.934224,4.000001 z"
     style="fill:none;stroke:url(#radialGradient3935);stroke-width:0.888891"
     id="path259"
     inkscape:export-xdpi="96"
     inkscape:export-ydpi="96" />
  <path
     d="m 23.473334,6.7047665 c -0.539557,0 -1.08,0.095992 -1.608891,0.2666669 -0.27822,0.080008 -0.532444,0.1777779 -0.801777,0.326222 -0.007,0.0035 -0.02489,-0.0035 -0.02489,0 -1.304888,0.6515567 -2.457777,1.8071117 -3.189333,3.5351126 0,0 -0.331555,1.324443 -0.493334,2.295998 -0.06044,0.310222 -0.07734,0.602668 -0.07734,0.800002 0,1.58311 2.778667,2.553778 6.222222,2.553778 0.444445,0 0.799999,0 1.244444,-0.02579 2.840889,-0.20978 4.977777,-1.143113 4.977777,-2.528002 0,-0.197332 -0.01777,-0.489778 -0.0889,-0.8 -0.151106,-0.975111 -0.479999,-2.299555 -0.479999,-2.299555 -0.732445,-1.724445 -1.886222,-2.88 -3.191112,-3.5315567 -0.0089,-0.0035 -0.01777,0.00262 -0.02666,0 C 25.668879,7.1492148 25.411103,7.0487632 25.126657,6.9714298 24.880435,6.8825481 24.611102,6.8247606 24.299992,6.7758755 c 0,0 0,0 0,0.00629 -0.272001,-0.041786 -0.547557,-0.077335 -0.825778,-0.077335 z"
     style="fill:url(#lg3932);stroke:#a40000;stroke-width:0.888891"
     id="path261"
     inkscape:export-xdpi="96"
     inkscape:export-ydpi="96" />
  <path
     d="m 20.388889,9.1749888 c 0,0 1.064888,-1.0844442 1.048888,-1.0782217 -1.102223,0.5368888 -2.106666,1.5342228 -2.756444,3.0693329 -0.03288,0.135106 -0.295999,1.215111 -0.443556,2.063111 -0.07112,0.142215 -0.07112,0.453333 -0.07112,0.675556 0,0.153779 0.06223,0.264001 0.257777,0.456888 0.186667,0.192001 0.515556,0.414224 0.986667,0.609779 0.977777,0.367999 2.462222,0.622221 4.088888,0.622221 0.444445,0 0.800001,0 1.182223,-0.02489 1.333335,-0.09777 2.462221,-0.375113 3.197333,-0.730667 0.731555,-0.355556 0.953779,-0.666668 0.953779,-0.933335 0,-0.143995 -0.03111,-0.416 -0.0889,-0.650666 -0.0889,-0.771555 -0.355554,-1.393779 -0.426664,-2.08711 -0.657777,-1.5288894 -1.706665,-2.6133352 -2.88,-3.1288909 -0.07112,0 1.173335,1.1822231 1.173335,1.1822231 -0.97778,1.3395558 -5.429337,1.3600008 -6.222226,-0.044441 z"
     style="fill:url(#lg3927);stroke:url(#lg3929);stroke-width:0.888891"
     id="path263"
     inkscape:export-xdpi="96"
     inkscape:export-ydpi="96" />
  <path
     d="m 23.233333,4.9287661 c -1.35022,0.058661 -2.399999,0.5430239 -2.399999,1.1297778 v 2.1751123 c 0,0.6284453 1.191111,1.1377785 2.666666,1.1377785 1.469334,0 2.666666,-0.5093332 2.666666,-1.1377785 V 6.0585439 c 0,-0.6248887 -1.197332,-1.1315543 -2.666666,-1.1315543 -0.0889,0 -0.182224,0 -0.266667,0.00175 z"
     style="fill:url(#lg22);stroke:#a40000;stroke-width:0.888891"
     id="path265"
     inkscape:export-xdpi="96"
     inkscape:export-ydpi="96" />
  <path
     d="M 23.233333,7.6354331 C 22.745335,7.6487096 22.276889,7.7181137 21.988889,7.791885 21.704444,7.8603284 21.722222,7.6381059 21.722222,7.5936632 V 8.0736626 C 21.881329,8.291441 22.7,8.4825513 23.5,8.4825513 c 0.498667,0 1.333333,-0.1102116 1.777778,-0.4088887 V 7.5936632 c 0,0.053332 0,0.2595554 -0.331555,0.1840004 C 24.618222,7.7021104 24.095556,7.6363223 23.5,7.635449 c -0.106665,0 -0.167107,-8.945e-4 -0.211556,0 z"
     style="opacity:0.56;fill:none;stroke:url(#lg21);stroke-width:0.888891"
     id="path267"
     inkscape:export-xdpi="96"
     inkscape:export-ydpi="96" />
  <path
     d="m 23.233333,4.9287661 c -1.35022,0.057787 -2.399999,0.5426675 -2.399999,1.1295996 v 0.397511 c 0,0.6311145 1.191111,1.1377803 2.666666,1.1377803 1.469334,0 2.666666,-0.5155557 2.666666,-1.1360019 V 6.0583657 c 0,-0.6247105 -1.197332,-1.1313761 -2.666666,-1.1313761 -0.0889,0 -0.182224,0 -0.272,0 z"
     style="fill:none;stroke:#a40000;stroke-width:0.888891"
     id="path269"
     inkscape:export-xdpi="96"
     inkscape:export-ydpi="96" />
  <path
     d="m 19.944445,22.704767 c 0.738666,0 1.333332,0.396445 1.333332,0.88889 v 9.333333 c 0,0.492444 -0.594666,0.888889 -1.333332,0.888889 -0.746667,0 -1.333334,-0.396445 -1.333334,-0.888889 v -9.333333 c 0,-0.492445 0.586667,-0.88889 1.333334,-0.88889 z"
     style="opacity:0.9;fill:#cc0000;stroke-width:0.888891"
     id="path271"
     inkscape:export-xdpi="96"
     inkscape:export-ydpi="96" />
  <path
     d="m 19.944445,22.704767 c 0.738666,0 1.333332,0.396445 1.333332,0.88889 v 9.333333 c 0,0.492444 -0.594666,0.888889 -1.333332,0.888889 -0.746667,0 -1.333334,-0.396445 -1.333334,-0.888889 v -9.333333 c 0,-0.492445 0.586667,-0.88889 1.333334,-0.88889 z"
     style="fill:url(#lg20);stroke-width:0.888891"
     id="path273"
     inkscape:export-xdpi="96"
     inkscape:export-ydpi="96" />
  <path
     d="m 19.944445,23.149211 c 0.492444,0 0.888889,0.198223 0.888889,0.444446 v 9.333333 c 0,0.246222 -0.396445,0.444446 -0.888889,0.444446 -0.492445,0 -0.888889,-0.198224 -0.888889,-0.444446 v -9.333333 c 0,-0.246223 0.396444,-0.444446 0.888889,-0.444446 z"
     style="opacity:0.4;fill:none;stroke:url(#lg19);stroke-width:0.888891"
     id="path275"
     inkscape:export-xdpi="96"
     inkscape:export-ydpi="96" />
  <path
     d="m 23.5,23.149211 c 0.738668,0 1.333333,0.396447 1.333333,0.888891 v 9.777777 c 0,0.492444 -0.595555,0.888888 -1.333333,0.888888 -0.746666,0 -1.333333,-0.396444 -1.333333,-0.888888 v -9.777777 c 0,-0.492444 0.586667,-0.888891 1.333333,-0.888891 z"
     style="opacity:0.9;fill:#cc0000;stroke-width:0.888891"
     id="path277"
     inkscape:export-xdpi="96"
     inkscape:export-ydpi="96" />
  <path
     d="m 23.5,23.149211 c 0.738668,0 1.333333,0.396447 1.333333,0.888891 v 9.777777 c 0,0.492444 -0.595555,0.888888 -1.333333,0.888888 -0.746666,0 -1.333333,-0.396444 -1.333333,-0.888888 v -9.777777 c 0,-0.492444 0.586667,-0.888891 1.333333,-0.888891 z"
     style="fill:url(#lg18);stroke-width:0.888891"
     id="path279"
     inkscape:export-xdpi="96"
     inkscape:export-ydpi="96" />
  <path
     d="m 23.5,23.593657 c 0.492444,0 0.888888,0.198221 0.888888,0.444445 v 9.777777 c 0,0.246223 -0.396444,0.444443 -0.888888,0.444443 -0.492444,0 -0.888888,-0.19822 -0.888888,-0.444443 v -9.777777 c 0,-0.246224 0.396444,-0.444445 0.888888,-0.444445 z"
     style="opacity:0.4;fill:none;stroke:url(#lg17);stroke-width:0.888891"
     id="path281"
     inkscape:export-xdpi="96"
     inkscape:export-ydpi="96" />
  <path
     d="m 27.055555,22.704767 c 0.738666,0 1.333334,0.396445 1.333334,0.88889 v 9.333333 c 0,0.492444 -0.595557,0.888889 -1.333334,0.888889 -0.746666,0 -1.333332,-0.400001 -1.333332,-0.888889 v -9.333333 c 0,-0.492445 0.586666,-0.88889 1.333332,-0.88889 z"
     style="opacity:0.9;fill:#cc0000;stroke-width:0.888891"
     id="path283"
     inkscape:export-xdpi="96"
     inkscape:export-ydpi="96" />
  <path
     d="m 27.055555,22.704767 c 0.738666,0 1.333334,0.396445 1.333334,0.88889 v 9.333333 c 0,0.492444 -0.595557,0.888889 -1.333334,0.888889 -0.746666,0 -1.333332,-0.400001 -1.333332,-0.888889 v -9.333333 c 0,-0.492445 0.586666,-0.88889 1.333332,-0.88889 z"
     style="fill:url(#lg16);stroke-width:0.888891"
     id="path285"
     inkscape:export-xdpi="96"
     inkscape:export-ydpi="96" />
  <path
     d="m 27.055555,23.149211 c 0.492445,0 0.888889,0.198223 0.888889,0.444446 v 9.333333 c 0,0.246222 -0.396444,0.444446 -0.888889,0.444446 -0.492444,0 -0.888889,-0.198224 -0.888889,-0.444446 v -9.333333 c 0,-0.246223 0.396445,-0.444446 0.888889,-0.444446 z"
     style="opacity:0.4;fill:none;stroke:url(#lg15);stroke-width:0.888891"
     id="path287"
     inkscape:export-xdpi="96"
     inkscape:export-ydpi="96" />
  <path
     d="m 28.833333,28.0381 c 0,2.945778 -2.387556,5.333336 -5.333333,5.333336 -2.945777,0 -5.333333,-2.387558 -5.333333,-5.333336 0,-2.945777 2.387556,-5.333333 5.333333,-5.333333 2.945777,0 5.333333,2.387556 5.333333,5.333333 z"
     style="fill:url(#lg14);stroke:#a40000;stroke-width:0.888891"
     id="path289"
     inkscape:export-xdpi="96"
     inkscape:export-ydpi="96" />
  <path
     d="m 23.5,23.593657 c -2.467556,0 -4.444444,1.976888 -4.444444,4.444443 0,2.467557 1.976888,4.444444 4.444444,4.444444 2.467556,0 4.444444,-1.976887 4.444444,-4.444444 0,-2.467555 -1.976888,-4.444443 -4.444444,-4.444443 z"
     style="fill:none;stroke:url(#lg13);stroke-width:0.888891"
     id="path291"
     inkscape:export-xdpi="96"
     inkscape:export-ydpi="96" />
  <path
     d="m 23.497462,26.777332 1.256889,1.256888 -1.256889,1.256889 -1.256888,-1.256889 z"
     style="fill:none;stroke:#a40000;stroke-width:0.88875"
     id="path293"
     inkscape:export-xdpi="96"
     inkscape:export-ydpi="96" />
  <path
     d="M 23.496835,27.406404 24.125278,28.03485 23.496835,28.663294 22.86839,28.03485 Z"
     style="fill:#ff7b7b;stroke-width:0.88875"
     id="path295"
     inkscape:export-xdpi="96"
     inkscape:export-ydpi="96" />
  <path
     d="m 14.611111,20.92699 c 0.98489,0 1.777779,0.539555 1.777779,1.208888 v 8.248889 c 0,0.669334 -0.792889,1.208889 -1.777779,1.208889 -0.984889,0 -1.777778,-0.539555 -1.777778,-1.208889 v -8.248889 c 0,-0.669333 0.792889,-1.208888 1.777778,-1.208888 z"
     style="fill:url(#lg12);stroke:#a40000;stroke-width:0.888891"
     id="path297"
     inkscape:export-xdpi="96"
     inkscape:export-ydpi="96" />
  <path
     d="m 14.388889,21.815879 h 0.444444 c 0.369778,0 0.666666,0.151107 0.666666,0.341333 v 8.206221 c 0,0.189334 -0.296888,0.341336 -0.666666,0.341336 h -0.444444 c -0.368889,0 -0.666666,-0.151107 -0.666666,-0.341336 v -8.206221 c 0,-0.190221 0.297777,-0.341333 0.666666,-0.341333 z"
     style="fill:none;stroke:url(#lg11);stroke-width:0.888891"
     id="path299"
     inkscape:export-xdpi="96"
     inkscape:export-ydpi="96" />
  <path
     d="m 32.388888,20.92699 c 0.98489,0 1.777779,0.539555 1.777779,1.208888 v 8.248889 c 0,0.669334 -0.792889,1.208889 -1.777779,1.208889 -0.984889,0 -1.777778,-0.539555 -1.777778,-1.208889 v -8.248889 c 0,-0.669333 0.792889,-1.208888 1.777778,-1.208888 z"
     style="fill:url(#lg10);stroke:#a40000;stroke-width:0.888891"
     id="path301"
     inkscape:export-xdpi="96"
     inkscape:export-ydpi="96" />
  <path
     d="m 32.166667,21.815879 h 0.444444 c 0.369778,0 0.666666,0.151107 0.666666,0.341333 v 8.206221 c 0,0.190224 -0.296888,0.341336 -0.666666,0.341336 h -0.444444 c -0.368889,0 -0.666666,-0.151107 -0.666666,-0.341336 v -8.206221 c 0,-0.190221 0.297777,-0.341333 0.666666,-0.341333 z"
     style="fill:none;stroke:url(#lg9);stroke-width:0.888891"
     id="path303"
     inkscape:export-xdpi="96"
     inkscape:export-ydpi="96" />
  <path
     d="m 12.388889,24.038102 c 0.492446,0 0.888889,0.396443 0.888889,0.888888 v 2.666665 c 0,0.492447 -0.396443,0.888891 -0.888889,0.888891 C 11.896444,28.482546 11.5,28.086102 11.5,27.593655 V 24.92699 c 0,-0.492445 0.396444,-0.888888 0.888889,-0.888888 z"
     style="fill:#a40000;stroke-width:0.888891"
     id="path305"
     inkscape:export-xdpi="96"
     inkscape:export-ydpi="96" />
  <path
     d="m 34.611111,24.038102 c 0.492445,0 0.888889,0.396443 0.888889,0.888888 v 2.666665 c 0,0.492447 -0.396444,0.888891 -0.888889,0.888891 -0.492446,0 -0.888889,-0.396444 -0.888889,-0.888891 V 24.92699 c 0,-0.492445 0.396443,-0.888888 0.888889,-0.888888 z"
     style="fill:#a40000;stroke-width:0.888891"
     id="path307"
     inkscape:export-xdpi="96"
     inkscape:export-ydpi="96" />
  <path
     d="m 21.344444,5.9536551 c -0.119994,0.1111199 -0.111102,0.5066675 -0.0046,0.6133346 0.844445,0.8168898 3.751112,0.7688885 4.32889,-0.048896 0.101317,-0.1422322 0.05333,-0.4497799 -0.03554,-0.560002 -0.8,-0.7911109 -3.466666,-0.7911109 -4.355554,-0.0089 z"
     style="opacity:0.46;fill:url(#lg3261);stroke-width:0.888891"
     id="path309"
     inkscape:export-xdpi="96"
     inkscape:export-ydpi="96" />
</svg>
